<?xml version="1.0" standalone="no"?><!DOCTYPE svg PUBLIC "-//W3C//DTD SVG 1.1//EN" "http://www.w3.org/Graphics/SVG/1.1/DTD/svg11.dtd"><svg t="1572656125853" class="icon" viewBox="0 0 1024 1024" version="1.1" xmlns="http://www.w3.org/2000/svg" p-id="8023" xmlns:xlink="http://www.w3.org/1999/xlink" width="120" height="120"><defs><style type="text/css"></style></defs><path d="M260.46 667.8c-24.78-42.77-38.96-92.44-38.96-145.42H512L260.46 667.8z" fill="#3D4265" p-id="8024"></path><path d="M167.24 713.76L512 522.38l102.06 380.91c-32.55 8.7-66.77 13.34-102.06 13.34-148.28-0.01-277.45-81.87-344.76-202.87zM871.46 314.84C906.78 375.89 927 446.77 927 522.38c0 37.15-4.88 73.17-14.04 107.44L512 522.38l359.46-207.54zM97 522.38c0-229.2 185.8-415 415-415v415H97z" fill="#386BF3" p-id="8025"></path><path d="M512 190.38c122.81 0 230.04 66.68 287.47 165.81L512 522.38v-332zM772.62 592.21C747.81 685.06 674.69 758.18 581.83 783L512 522.38l260.62 69.83z" fill="#3D4265" p-id="8026"></path><path d="M512 522.38m-103.75 0a103.75 103.75 0 1 0 207.5 0 103.75 103.75 0 1 0-207.5 0Z" fill="#C3D2FB" p-id="8027"></path></svg>